<svg xmlns="http://www.w3.org/2000/svg" viewBox="0 0 200 48" width="200" height="48">
  <!-- Leaf icon (white version for dark backgrounds) -->
  <g transform="translate(4, 4)">
    <path d="M20 36 C20 36 8 28 8 18 C8 8 16 2 24 2 C32 2 36 8 36 14 C36 24 24 32 20 36Z" fill="#ffffff" stroke="#f5f0e8" stroke-width="1"/>
    <path d="M20 36 C20 36 14 24 18 14 C20 10 24 6 28 8" fill="none" stroke="#d4a017" stroke-width="1.5" stroke-linecap="round"/>
    <path d="M18 14 C22 16 24 20 22 24" fill="none" stroke="#d4a017" stroke-width="1" stroke-linecap="round"/>
    <path d="M20 20 C24 18 26 14 24 10" fill="none" stroke="#d4a017" stroke-width="1" stroke-linecap="round"/>
  </g>
  <!-- Company name (white) -->
  <text x="48" y="22" font-family="Georgia, serif" font-size="14" font-weight="700" fill="#ffffff">CHITTAMPALLI</text>
  <text x="48" y="38" font-family="Arial, sans-serif" font-size="10" font-weight="400" fill="#f5f0e8" letter-spacing="2">EXPORTS PVT LTD</text>
</svg>
